<?xml version="1.0" encoding="utf-8"?>
<!-- Generator: Adobe Illustrator 25.0.1, SVG Export Plug-In . SVG Version: 6.00 Build 0)  -->
<svg version="1.1" id="_x33__1_" xmlns="http://www.w3.org/2000/svg" xmlns:xlink="http://www.w3.org/1999/xlink" x="0px" y="0px"
	 viewBox="0 0 844.5 256.5" style="enable-background:new 0 0 844.5 256.5;" xml:space="preserve">
<style type="text/css">
	.st0{fill:#FFFFFF;}
	.st1{fill:#FBDD39;}
	.st2{fill:#51BAD2;}
	.st3{fill:#69C03E;}
	.st4{fill:#A0C24F;}
	.st5{fill:#B439FB;}
	.st6{fill:#FF7E38;}
	.st7{fill:#F941A0;}
	.st8{fill:#5D5D5D;}
</style>
<g id="Shape_1_copy_3">
	<g>
		<path class="st0" d="M190.2,156.9h-19.9L152.2,233l20.2,0c43.5,0,52-14,55.9-39C232.1,170.5,221.5,156.9,190.2,156.9z
			 M207.2,191.3c-1.2,7.6-1.7,24.6-29.7,22.6l9.4-38.6C201.3,175.7,209.5,176.7,207.2,191.3z M43.9,156.9
			C26.3,179.3,14.4,206.9,4,233l19.1,0c1.8-4.9,3.8-10,5.8-15l22.5,0c0.2,4.1,0,10.8-0.4,15l19.1,0c2.8-27-0.1-53.4-7-76.1
			L43.9,156.9z M35.8,203c3.8-7.8,8-15.2,12.5-21.8c1.9,6.7,3.1,14,3.5,21.8L35.8,203z M354.7,175l21.2,0l3.7-18.1l-24.4,0
			c-16.7,0-36.5,13-25,33.8c2.4,4.3,9.1,9.7,12.4,13.5c5.8,5.6,4.1,11-0.6,11l-25,0l-4.1,17.7l28.2,0c15.3,0,32.4-12.1,26.2-29.8
			c-1.8-5.3-10-13.1-13.6-17.2C347.8,180.4,350,175,354.7,175z M313.3,176c4.7,0.5,12.1-7.6,11.7-14.5c-0.3-5.2-3.8-9.4-8.6-9.4
			c-4.9,0-8.8,4.2-8.8,9.4c0,5.2,3.9,9.4,8.8,9.4C316.6,170.9,315.6,174.3,313.3,176z M281.2,156.9l-0.6,0
			c-0.5,4.2-1.9,20.6-10.2,34.7c-0.8,1.3-1.6,2.5-2.5,3.6c-7.7-10.5-10.4-23.7-7.7-37.9c0.1-0.2,0.1-0.4,0.1-0.6l-20.9-0.1l0,0
			c-0.1,0.2-0.1,0.4-0.1,0.6c-3.8,19.7,0.2,38.2,11.4,52.5c-0.9,0.5-1.4,0.7-1.4,0.7c-5.4,2.2-11.8,3.4-19.2,3.2l-5.2,19
			c0.6,0,1.2,0,1.9-0.1c0.2,0,0.4,0,0.6,0c9.9,0,19.3-1.3,28-4.2c4.2-1.4,8.3-3.3,12.1-5.5c0.2-0.1,4.2-2.5,6.5-4.5
			c0.3-0.3,1.5-1.2,1.8-1.5c13.5-11.7,22.7-30.8,24.6-60c0,0,0,0,0-0.1c0,0,0-0.1,0-0.1l-19.1,0
			C281.2,156.8,281.2,156.9,281.2,156.9z M141.2,156.9l-4.8,20.8c-5.4-8.3-12.4-15.5-20.8-20.8l0,0l-21.4,0L76.7,233l21.9,0
			l11.9-52.8c9.6,8.2,15.9,19.6,17.8,32.9c0,0.1,0,0.2,0,0.3l-4.5,19.6l21.9,0l17.1-76.1L141.2,156.9z"/>
	</g>
</g>
<g id="Shape_1_copy_3_1_">
	<g>
		<path class="st1" d="M353.6,59.2c-7.5,13.7-23.5,26.8-38.7,35.1c-55.9,30.5-152.6,6-186.9,27.9c-7.5,4.8-12.1,12.6-14.6,22.6
			c4.5-6.6,14.4-11.9,35.1-13.8c21.7-2,133.9,10.9,170.1-12C345.8,104.4,358.3,74.7,353.6,59.2z M312.1,2.8
			c17.1,34.8-26,57.5-59.6,63.5c-37.3,6.6-97.7,7.9-123.1,17c-36.1,13-41.2,39.5-32.5,58.1c9.4-67.2,165.3-25.1,215.1-68.1
			C351.8,39,330.3,7.4,312.1,2.8z"/>
	</g>
</g>
<g id="Shape_5_copy">
	<g>
		<path class="st0" d="M593.1,158c5.7-3.8,11.5-7.4,17.6-10.9c9-5.1,18.4-9.9,26.9-16.6c12.4-9.8,19.1-22.2,18.5-37.6
			c-0.4-9-4.7-15.6-13.1-19.4c-5.8-2.6-12-3.5-18.4-3.3c-17.9,0.6-34.8,4.8-50.6,12.4c-0.6,0.3-1.2,1.2-1.3,1.8
			c-0.8,4.1-1.6,8.3-2.3,12.4c-1.1,6-2.1,12-3.2,18c0.2,0,0.3,0,0.3,0c0.6-0.4,1.2-0.8,1.9-1.2c11.7-7.7,24.8-12.6,39.1-14.1
			c4-0.4,8-0.3,11.8,1.1c4.1,1.6,5.9,4.7,4.9,8.9c-0.4,1.8-1.1,3.8-2.3,5.2c-2.4,2.7-4.9,5.3-7.9,7.3c-6.3,4.1-12.9,7.8-19.3,11.4
			c-8.9,5.1-17.8,9.9-25.4,16.4c-6.2,5.4-11.1,11.5-12.7,19.5c-1.1,5.6-2.1,11.3-3.1,16.9c-0.5,3-1.1,6.1-1.6,9.2
			c26.6-0.2,54-0.4,82.6-0.6c2-9,4-18,6-27.2c-19.2,0.5-37.8,0.9-56.2,1.4c0.4-1.1,0.6-1.9,0.9-2.7C587.6,162.9,590,160.1,593.1,158
			z M760.6,91.4c2.9-10.7,5.8-21.3,8.8-32.1c-0.4-0.1-0.5-0.2-0.6-0.2c-30.3,2.6-59.5,5.2-87.7,7.7c-0.6,0.1-1.5,1-1.7,1.6
			c-1,4-1.9,7.9-2.8,11.9c-4,17.4-8,34.6-11.8,51.4c-0.4,1.9-0.8,3.8-1.2,5.9c1-0.1,1.7-0.2,2.3-0.3c11.3-2.1,22.8-3.2,34.4-1.8
			c6.3,0.7,12.4,2.1,17.3,5.9c3.5,2.7,5.3,6.1,4.4,10.4c-1.1,5.1-4.2,9.1-9.4,11.7c-7.3,3.8-15.2,4.1-22.9,3.5
			c-12.1-0.9-23-4.5-32.3-11.7c-2.3,10.1-4.4,19.9-6.7,29.5c-0.4,1.7,0,2.5,1.7,3.1c18.3,7,37.7,9,58.3,5.2
			c11.6-2.2,21.7-7.3,29.7-15.7c7.4-7.6,11.4-16.6,13.3-26.3c1.3-6.9,1.3-13.7-2.1-19.9c-4.5-8.2-12.6-12.3-22.1-14.7
			c-11-2.8-22.3-3-33.6-2.4c-0.9,0.1-1.8,0.1-3.1,0.2c1.6-6.3,3-12.4,4.6-18.5C718,94.3,738.9,92.9,760.6,91.4z"/>
	</g>
</g>
<g id="ani_împreună">
	<g>
		<path class="st0" d="M568.4,224.7c-1.3-1.5-3-2.2-4.9-2.2c-4.4,0-8,3.8-8,8.5c0,4.7,3.6,8.5,8,8.5c1.9,0,3.6-0.7,4.9-2.2v1.7h4.1
			v-16h-4.1V224.7z M564,235.4c-2.4,0-4.4-2-4.4-4.4s2-4.4,4.4-4.4s4.4,2,4.4,4.4S566.4,235.4,564,235.4z M584.1,222.5
			c-2.4,0-3.7,0.8-4.8,2.1V223h-4.1v16h4.1v-8.3c0-2.9,1.7-4.1,3.6-4.1c2.1,0,3.1,1.1,3.1,3.6v8.8h4.1v-9.3
			C590.1,224.9,587.8,222.5,584.1,222.5z M592.2,239h4.1v-16h-4.1V239z M594.2,215.3c-1.6,0-2.8,1.3-2.8,2.8s1.3,2.8,2.8,2.8
			c1.6,0,2.8-1.3,2.8-2.8S595.8,215.3,594.2,215.3z M609.7,218.6l1.8,2.4h3.6l-4.5-4.6h-1.8l-4.5,4.6h3.6L609.7,218.6z M607.7,239
			h4.1v-16h-4.1V239z M631.9,222.5c-2.2,0-3.6,0.8-4.8,2.2c-1-1.5-2.5-2.2-4.5-2.2c-1.6,0-3.1,0.8-4.1,2.1V223h-4.1v16h4.1v-8.3
			c0-2.9,1.2-4.1,3.1-4.1c1.8,0,2.6,1.1,2.6,3.6v8.8h4.1v-8.3c0-2.9,1.2-4.1,3.1-4.1c2,0,2.6,1.1,2.6,3.6v8.8h4.1v-9.3
			C638.1,224.9,635.6,222.5,631.9,222.5z M649.2,222.5c-1.9,0-3.6,0.7-4.9,2.2V223h-4.1v24.3h4.1v-10c1.3,1.5,3,2.2,4.9,2.2
			c4.4,0,8-3.8,8-8.5C657.2,226.3,653.7,222.5,649.2,222.5z M648.7,235.4c-2.4,0-4.4-2-4.4-4.4s2-4.4,4.4-4.4s4.4,2,4.4,4.4
			S651.1,235.4,648.7,235.4z M662.9,226.4V223h-4.1v16h4.1v-6.7c0-2.8,1.9-4.5,3.6-4.9c0.9-0.3,2.1-0.3,3.1,0v-4.9
			C666.7,222.7,664,223.9,662.9,226.4z M678.2,222.5c-5.6,0-8.3,3.8-8.3,8.5c0,4.6,2.7,8.5,9,8.5c3.8,0,6-1.5,6-1.5l-1.2-3.6
			c-1.3,0.9-3.1,1.5-4.8,1.5c-2.6,0-4.2-1.5-4.7-3.6h11.7c0-0.4,0.1-0.9,0.1-1.3C685.9,225.7,683.2,222.5,678.2,222.5z M674.3,229.2
			c0-1.3,1.5-3.1,3.6-3.1c2.5,0,3.6,1.8,3.6,3.1H674.3z M697.5,231.3c0,2.9-1.7,4.1-3.6,4.1c-2.1,0-3.1-1.1-3.1-3.6V223h-4.1v9.3
			c0,4.8,2.3,7.2,6,7.2c2.4,0,3.7-0.8,4.8-2.1v1.5h4.1v-16h-4.1V231.3z M713.2,222.5c-2.4,0-3.7,0.8-4.8,2.1V223h-4.1v16h4.1v-8.3
			c0-2.9,1.7-4.1,3.6-4.1c2.1,0,3.1,1.1,3.1,3.6v8.8h4.1v-9.3C719.2,224.9,716.9,222.5,713.2,222.5z M730.1,221
			c2.6,0,4.6-2.1,4.6-4.6h-2.2c0,1.4-1.1,2.5-2.5,2.5c-1.4,0-2.5-1.1-2.5-2.5h-2.2C725.4,218.9,727.5,221,730.1,221z M733.4,223v1.7
			c-1.3-1.5-3-2.2-4.9-2.2c-4.4,0-8,3.8-8,8.5c0,4.7,3.6,8.5,8,8.5c1.9,0,3.6-0.7,4.9-2.2v1.7h4.1v-16H733.4z M729,235.4
			c-2.4,0-4.4-2-4.4-4.4s2-4.4,4.4-4.4s4.4,2,4.4,4.4S731.4,235.4,729,235.4z"/>
	</g>
</g>
<g id="Ellipse_1">
	<g>
		<ellipse class="st2" cx="750.7" cy="198.5" rx="7.3" ry="7.3"/>
	</g>
</g>
<g id="Ellipse_1_copy">
	<g>
		<circle class="st3" cx="520.3" cy="181" r="4.8"/>
	</g>
</g>
<g id="Shape_3_copy">
	<g>
		<path class="st4" d="M532.3,103.7l-10.3,3.5c0,0,4.7,21.3,26.7,27.6l4.5-9.5C553.2,125.2,536.7,120.5,532.3,103.7z"/>
	</g>
</g>
<g id="Shape_3_copy_4">
	<g>
		<path class="st2" d="M535.7,53.1l-3.7,6.6c0,0,11.5,4.3,13.7,16.5l7.5-1.9C553.2,74.2,551,58.8,535.7,53.1z"/>
	</g>
</g>
<g id="Shape_3_copy_5">
	<g>
		<path class="st5" d="M812.6,218.8c0,0-15.2,8.1-30.1-1.1l-5,9.7c0,0,18.3,12.2,38.6,1.5L812.6,218.8z"/>
	</g>
</g>
<g id="Shape_6">
	<g>
		<path class="st6" d="M530.6,193.8c-0.3,0.6-0.7,1.2-1.1,1.7c-4.5,6.4-12.5,9.2-18.4,10.2c-6.3,1.1-12.8,0.2-18.8-2.4
			c-1.9,2.7-3.8,5.4-5.7,8.2c8.4,5.5,18.7,7.4,28.5,5.1c9.9-2.3,18.5-8.5,23.6-17.2C536,197.5,533.3,195.6,530.6,193.8z"/>
	</g>
</g>
<g id="Shape_6_copy">
	<g>
		<path class="st7" d="M827.9,81.3c-0.3,1-0.6,2-1,2.9c-4.3,11-15.2,17.9-23.5,21.4c-9,3.8-18.8,4.7-28.5,3c-1.8,4.7-3.7,9.3-5.5,14
			c14.3,5.2,30,4.4,43.7-2.3c13.8-6.8,24.2-18.9,28.8-33.6C837.2,85,832.6,83.1,827.9,81.3z"/>
	</g>
</g>
<g id="Shape_6_copy_2">
	<g>
		<path class="st4" d="M799.7,175.9c-6.3-6.6-15-10.3-24.2-10.2c-0.2,3-0.4,5.9-0.6,8.9c0.6,0,1.2,0,1.8,0c7,0.5,12.9,5.4,16.3,9.5
			c3.7,4.4,6.1,9.8,6.9,15.6c3,0.2,5.9,0.4,8.9,0.6C809.3,191.3,806,182.5,799.7,175.9z"/>
	</g>
</g>
<g id="Line_1_copy">
	<g>
		<rect x="429.4" y="88.6" class="st8" width="3.9" height="165.6"/>
	</g>
</g>
</svg>
